<svg width="242" height="81" viewBox="0 0 242 81" fill="none" xmlns="http://www.w3.org/2000/svg">
<path d="M12.857 14.534H12.341C9.78967 14.534 7.79733 15.179 6.364 16.469C4.95933 17.7303 4.257 19.9807 4.257 23.22C4.257 24.2807 4.35733 25.026 4.558 25.456C4.75867 25.8573 4.859 26.0867 4.859 26.144C3.311 26.144 2.15 25.8287 1.376 25.198C0.630667 24.5387 0.258 23.4637 0.258 21.973C0.258 19.9377 0.759667 18.0887 1.763 16.426C2.76633 14.7347 4.35733 13.373 6.536 12.341C8.74333 11.309 11.5383 10.793 14.921 10.793C16.813 10.793 18.8483 10.965 21.027 11.309C22.8617 11.6243 24.4957 11.782 25.929 11.782C27.7637 11.782 29.4263 11.481 30.917 10.879C30.8597 12.7423 30.3867 14.1183 29.498 15.007C28.6093 15.8957 27.2907 16.34 25.542 16.34C24.6247 16.34 23.7073 16.2683 22.79 16.125C21.8727 15.9817 20.5683 15.738 18.877 15.394L12.943 43H6.751L12.857 14.534ZM26.8511 43.258C24.7298 43.258 23.0815 42.7133 21.9061 41.624C20.7308 40.506 20.1431 38.7717 20.1431 36.421C20.1431 34.443 20.5301 32.2643 21.3041 29.885C22.0781 27.5057 23.3395 25.456 25.0881 23.736C26.8368 21.9873 29.0585 21.113 31.7531 21.113C34.9065 21.113 36.4831 22.489 36.4831 25.241C36.4831 26.8463 36.0245 28.3227 35.1071 29.67C34.1898 31.0173 32.9715 32.1067 31.4521 32.938C29.9328 33.7407 28.3131 34.1993 26.5931 34.314C26.5358 35.174 26.5071 35.7473 26.5071 36.034C26.5071 37.4387 26.7508 38.399 27.2381 38.915C27.7255 39.4023 28.5138 39.646 29.6031 39.646C31.1511 39.646 32.4698 39.2877 33.5591 38.571C34.6771 37.8543 35.8955 36.765 37.2141 35.303H38.6761C35.4941 40.6063 31.5525 43.258 26.8511 43.258ZM26.9371 32.25C27.9978 32.1927 29.0011 31.82 29.9471 31.132C30.9218 30.444 31.6958 29.5697 32.2691 28.509C32.8711 27.4483 33.1721 26.3303 33.1721 25.155C33.1721 23.9797 32.8138 23.392 32.0971 23.392C31.0651 23.392 30.0475 24.295 29.0441 26.101C28.0695 27.907 27.3671 29.9567 26.9371 32.25ZM42.3651 43.258C40.7311 43.258 39.3694 42.699 38.2801 41.581C37.1907 40.463 36.6461 38.7143 36.6461 36.335C36.6461 34.2137 37.0617 31.992 37.8931 29.67C38.7531 27.3193 40.0144 25.3413 41.6771 23.736C43.3684 22.102 45.3751 21.285 47.6971 21.285C48.8724 21.285 49.7467 21.4857 50.3201 21.887C50.8934 22.2883 51.1801 22.8187 51.1801 23.478V23.779L51.6531 21.5H57.8451L54.7491 36.12C54.6344 36.55 54.5771 37.0087 54.5771 37.496C54.5771 38.7287 55.1647 39.345 56.3401 39.345C57.1427 39.345 57.8307 38.9723 58.4041 38.227C59.0061 37.4817 59.4791 36.507 59.8231 35.303H61.6291C60.5684 38.399 59.2497 40.506 57.6731 41.624C56.1251 42.7133 54.5627 43.258 52.9861 43.258C51.7821 43.258 50.8074 42.9283 50.0621 42.269C49.3454 41.581 48.9154 40.592 48.7721 39.302C47.9407 40.4773 47.0091 41.4377 45.9771 42.183C44.9737 42.8997 43.7697 43.258 42.3651 43.258ZM45.1601 39.087C45.8767 39.087 46.5791 38.7573 47.2671 38.098C47.9837 37.41 48.4711 36.4783 48.7291 35.303L50.7931 25.585C50.7931 25.2123 50.6497 24.854 50.3631 24.51C50.0764 24.1373 49.6321 23.951 49.0301 23.951C47.8834 23.951 46.8514 24.6247 45.9341 25.972C45.0167 27.2907 44.3001 28.896 43.7841 30.788C43.2681 32.6513 43.0101 34.2997 43.0101 35.733C43.0101 37.1663 43.2107 38.0837 43.6121 38.485C44.0421 38.8863 44.5581 39.087 45.1601 39.087ZM65.9879 43.258C63.8665 43.258 62.2182 42.7133 61.0429 41.624C59.8675 40.506 59.2799 38.7717 59.2799 36.421C59.2799 34.443 59.6669 32.2643 60.4409 29.885C61.2435 27.5057 62.5049 25.456 64.2249 23.736C65.9735 21.9873 68.1809 21.113 70.8469 21.113C72.5669 21.113 73.7852 21.4857 74.5019 22.231C75.2472 22.9763 75.6199 23.9223 75.6199 25.069C75.6199 26.0723 75.4049 26.8463 74.9749 27.391C74.5449 27.9357 74.0002 28.208 73.3409 28.208C72.8535 28.208 72.3519 28.036 71.8359 27.692C72.1799 26.746 72.3519 25.9003 72.3519 25.155C72.3519 24.6103 72.2515 24.1803 72.0509 23.865C71.8502 23.5497 71.5492 23.392 71.1479 23.392C70.2879 23.392 69.4279 24.0943 68.5679 25.499C67.7079 26.9037 67.0055 28.6093 66.4609 30.616C65.9162 32.6227 65.6439 34.4287 65.6439 36.034C65.6439 37.4387 65.8875 38.399 66.3749 38.915C66.8622 39.4023 67.6505 39.646 68.7399 39.646C70.2879 39.646 71.6065 39.2877 72.6959 38.571C73.8139 37.8543 75.0322 36.765 76.3509 35.303H77.8129C74.6309 40.6063 70.6892 43.258 65.9879 43.258ZM91.8648 43.258C90.1161 43.258 88.8261 42.7993 87.9948 41.882C87.1921 40.936 86.7908 39.775 86.7908 38.399C86.7908 37.797 86.8625 37.1233 87.0058 36.378C87.1491 35.604 87.2925 34.8587 87.4358 34.142C87.6078 33.4253 87.7225 32.9667 87.7798 32.766C88.0091 31.7627 88.2241 30.7737 88.4248 29.799C88.6255 28.8243 88.7258 28.036 88.7258 27.434C88.7258 25.972 88.2098 25.241 87.1778 25.241C86.4325 25.241 85.7731 25.6137 85.1998 26.359C84.6265 27.0757 84.1678 28.0217 83.8238 29.197L80.8998 43H74.7078L80.9428 13.76L87.3068 12.9L84.9848 23.736C86.4181 22.1307 88.0951 21.328 90.0158 21.328C91.4778 21.328 92.6388 21.7293 93.4988 22.532C94.3588 23.3347 94.7888 24.553 94.7888 26.187C94.7888 27.0183 94.6885 27.95 94.4878 28.982C94.2871 29.9853 94.0005 31.218 93.6278 32.68C93.3985 33.5687 93.1835 34.443 92.9828 35.303C92.8108 36.1343 92.7248 36.7937 92.7248 37.281C92.7248 37.8543 92.8538 38.2987 93.1118 38.614C93.3698 38.9293 93.8141 39.087 94.4448 39.087C95.3048 39.087 95.9928 38.786 96.5088 38.184C97.0248 37.5533 97.5408 36.593 98.0568 35.303H99.8628C98.8021 38.4563 97.5695 40.5777 96.1648 41.667C94.7888 42.7277 93.3555 43.258 91.8648 43.258ZM104.201 43.258C102.079 43.258 100.431 42.7133 99.2558 41.624C98.0804 40.506 97.4928 38.7717 97.4928 36.421C97.4928 34.443 97.8798 32.2643 98.6538 29.885C99.4278 27.5057 100.689 25.456 102.438 23.736C104.186 21.9873 106.408 21.113 109.103 21.113C112.256 21.113 113.833 22.489 113.833 25.241C113.833 26.8463 113.374 28.3227 112.457 29.67C111.539 31.0173 110.321 32.1067 108.802 32.938C107.282 33.7407 105.663 34.1993 103.943 34.314C103.885 35.174 103.857 35.7473 103.857 36.034C103.857 37.4387 104.1 38.399 104.588 38.915C105.075 39.4023 105.863 39.646 106.953 39.646C108.501 39.646 109.819 39.2877 110.909 38.571C112.027 37.8543 113.245 36.765 114.564 35.303H116.026C112.844 40.6063 108.902 43.258 104.201 43.258ZM104.287 32.25C105.347 32.1927 106.351 31.82 107.297 31.132C108.271 30.444 109.045 29.5697 109.619 28.509C110.221 27.4483 110.522 26.3303 110.522 25.155C110.522 23.9797 110.163 23.392 109.447 23.392C108.415 23.392 107.397 24.295 106.394 26.101C105.419 27.907 104.717 29.9567 104.287 32.25ZM117.479 21.5H123.671L123.112 24.166C124.086 23.306 124.961 22.6467 125.735 22.188C126.537 21.7293 127.397 21.5 128.315 21.5C129.232 21.5 129.949 21.8153 130.465 22.446C131.009 23.0767 131.282 23.8363 131.282 24.725C131.282 25.5563 131.009 26.2873 130.465 26.918C129.92 27.5487 129.16 27.864 128.186 27.864C127.555 27.864 127.125 27.7207 126.896 27.434C126.695 27.1187 126.537 26.6743 126.423 26.101C126.337 25.7283 126.251 25.456 126.165 25.284C126.079 25.112 125.921 25.026 125.692 25.026C125.09 25.026 124.574 25.155 124.144 25.413C123.742 25.6423 123.212 26.058 122.553 26.66L119.113 43H112.921L117.479 21.5ZM134.85 20.253C135.452 19.6223 135.925 19.0347 136.269 18.49C136.613 17.9453 136.785 17.501 136.785 17.157C136.785 16.9563 136.713 16.77 136.57 16.598C136.455 16.426 136.269 16.2397 136.011 16.039C135.609 15.7237 135.294 15.394 135.065 15.05C134.835 14.706 134.721 14.2473 134.721 13.674C134.721 12.7853 134.993 12.0687 135.538 11.524C136.082 10.9507 136.77 10.664 137.602 10.664C138.49 10.664 139.207 10.9507 139.752 11.524C140.325 12.0687 140.612 12.7853 140.612 13.674C140.612 14.792 140.139 16.0247 139.193 17.372C138.275 18.6907 137.043 19.866 135.495 20.898L134.85 20.253ZM145.87 43.258C144.494 43.258 143.333 43 142.387 42.484C141.441 41.9393 140.738 41.2513 140.28 40.42C139.821 39.56 139.592 38.6713 139.592 37.754C139.592 36.808 139.821 35.991 140.28 35.303C140.71 34.5863 141.24 34.0703 141.871 33.755C142.989 31.7483 143.963 29.7273 144.795 27.692C145.626 25.628 146.414 23.4063 147.16 21.027L153.524 20.167C153.667 23.8363 153.911 27.8067 154.255 32.078C154.398 33.798 154.47 35.045 154.47 35.819C154.47 37.5677 154.025 39.001 153.137 40.119C152.248 41.237 151.144 42.0397 149.826 42.527C148.536 43.0143 147.217 43.258 145.87 43.258ZM144.494 39.861C145.554 39.861 146.443 39.5457 147.16 38.915C147.876 38.2843 148.235 37.2667 148.235 35.862C148.235 35.002 148.149 33.798 147.977 32.25C147.69 28.982 147.504 26.789 147.418 25.671C146.73 27.9357 145.569 30.6447 143.935 33.798C144.594 34.142 144.924 34.6437 144.924 35.303C144.924 35.8477 144.737 36.335 144.365 36.765C144.021 37.195 143.576 37.41 143.032 37.41C142.43 37.41 142.043 37.2237 141.871 36.851C141.871 37.883 142.071 38.6427 142.473 39.13C142.903 39.6173 143.576 39.861 144.494 39.861Z" fill="#5B736E"/>
<path d="M86.857 51.534H86.341C83.7897 51.534 81.7973 52.179 80.364 53.469C78.9593 54.7303 78.257 56.9807 78.257 60.22C78.257 61.2807 78.3573 62.026 78.558 62.456C78.7587 62.8573 78.859 63.0867 78.859 63.144C77.311 63.144 76.15 62.8287 75.376 62.198C74.6307 61.5387 74.258 60.4637 74.258 58.973C74.258 56.9377 74.7597 55.0887 75.763 53.426C76.7663 51.7347 78.3573 50.373 80.536 49.341C82.7433 48.309 85.5383 47.793 88.921 47.793C90.813 47.793 92.8483 47.965 95.027 48.309C96.8617 48.6243 98.4957 48.782 99.929 48.782C101.764 48.782 103.426 48.481 104.917 47.879C104.86 49.7423 104.387 51.1183 103.498 52.007C102.609 52.8957 101.291 53.34 99.542 53.34C98.6247 53.34 97.7073 53.2683 96.79 53.125C95.8727 52.9817 94.5683 52.738 92.877 52.394L86.943 80H80.751L86.857 51.534ZM99.8621 80.258C98.2281 80.258 96.8665 79.699 95.7771 78.581C94.6878 77.463 94.1431 75.7143 94.1431 73.335C94.1431 71.2137 94.5588 68.992 95.3901 66.67C96.2501 64.3193 97.5115 62.3413 99.1741 60.736C100.865 59.102 102.872 58.285 105.194 58.285C106.369 58.285 107.244 58.4857 107.817 58.887C108.39 59.2883 108.677 59.8187 108.677 60.478V60.779L109.15 58.5H115.342L112.246 73.12C112.131 73.55 112.074 74.0087 112.074 74.496C112.074 75.7287 112.662 76.345 113.837 76.345C114.64 76.345 115.328 75.9723 115.901 75.227C116.503 74.4817 116.976 73.507 117.32 72.303H119.126C118.065 75.399 116.747 77.506 115.17 78.624C113.622 79.7133 112.06 80.258 110.483 80.258C109.279 80.258 108.304 79.9283 107.559 79.269C106.842 78.581 106.412 77.592 106.269 76.302C105.438 77.4773 104.506 78.4377 103.474 79.183C102.471 79.8997 101.267 80.258 99.8621 80.258ZM102.657 76.087C103.374 76.087 104.076 75.7573 104.764 75.098C105.481 74.41 105.968 73.4783 106.226 72.303L108.29 62.585C108.29 62.2123 108.147 61.854 107.86 61.51C107.573 61.1373 107.129 60.951 106.527 60.951C105.38 60.951 104.348 61.6247 103.431 62.972C102.514 64.2907 101.797 65.896 101.281 67.788C100.765 69.6513 100.507 71.2997 100.507 72.733C100.507 74.1663 100.708 75.0837 101.109 75.485C101.539 75.8863 102.055 76.087 102.657 76.087ZM122.238 80.258C120.862 80.258 119.701 80 118.755 79.484C117.809 78.9393 117.107 78.2513 116.648 77.42C116.189 76.56 115.96 75.6713 115.96 74.754C115.96 73.808 116.189 72.991 116.648 72.303C117.078 71.5863 117.608 71.0703 118.239 70.755C119.357 68.7483 120.332 66.7273 121.163 64.692C121.994 62.628 122.783 60.4063 123.528 58.027L129.892 57.167C130.035 60.8363 130.279 64.8067 130.623 69.078C130.766 70.798 130.838 72.045 130.838 72.819C130.838 73.4783 130.781 74.023 130.666 74.453C132.013 73.679 133.045 72.9623 133.762 72.303H135.568C133.733 74.4243 131.54 76.216 128.989 77.678C128.158 78.5667 127.126 79.226 125.893 79.656C124.689 80.0573 123.471 80.258 122.238 80.258ZM120.862 76.861C121.923 76.861 122.811 76.5457 123.528 75.915C124.245 75.2843 124.603 74.2667 124.603 72.862C124.603 72.002 124.517 70.798 124.345 69.25C124.058 65.982 123.872 63.789 123.786 62.671C123.098 64.9357 121.937 67.6447 120.303 70.798C120.962 71.142 121.292 71.6437 121.292 72.303C121.292 72.8477 121.106 73.335 120.733 73.765C120.389 74.195 119.945 74.41 119.4 74.41C118.798 74.41 118.411 74.2237 118.239 73.851C118.239 74.883 118.44 75.6427 118.841 76.13C119.271 76.6173 119.945 76.861 120.862 76.861ZM149.923 80.258C148.146 80.258 146.798 79.8423 145.881 79.011C144.964 78.151 144.505 76.9327 144.505 75.356C144.505 74.668 144.591 73.9227 144.763 73.12L145.107 71.443C145.222 70.9557 145.279 70.4253 145.279 69.852C145.279 68.476 144.763 67.788 143.731 67.788C143.272 67.788 142.785 67.917 142.269 68.175C141.782 68.433 141.208 68.8343 140.549 69.379L138.313 80H132.121L138.356 50.76L144.72 49.9L141.495 65.036L149.794 58.5H154.051L145.451 64.477C145.881 64.3623 146.354 64.305 146.87 64.305C148.418 64.305 149.593 64.778 150.396 65.724C151.199 66.67 151.6 67.874 151.6 69.336C151.6 69.938 151.543 70.4827 151.428 70.97L150.955 73.12C150.812 73.636 150.74 74.0947 150.74 74.496C150.74 75.5567 151.299 76.087 152.417 76.087C153.277 76.087 153.965 75.786 154.481 75.184C154.997 74.5533 155.513 73.593 156.029 72.303H157.835C156.058 77.6063 153.42 80.258 149.923 80.258ZM160.913 80.258C159.537 80.258 158.376 80 157.43 79.484C156.484 78.9393 155.781 78.2513 155.323 77.42C154.864 76.56 154.635 75.6713 154.635 74.754C154.635 73.808 154.864 72.991 155.323 72.303C155.753 71.5863 156.283 71.0703 156.914 70.755C158.032 68.7483 159.006 66.7273 159.838 64.692C160.669 62.628 161.457 60.4063 162.203 58.027L168.567 57.167C168.71 60.8363 168.954 64.8067 169.298 69.078C169.441 70.798 169.513 72.045 169.513 72.819C169.513 74.5677 169.068 76.001 168.18 77.119C167.291 78.237 166.187 79.0397 164.869 79.527C163.579 80.0143 162.26 80.258 160.913 80.258ZM159.537 76.861C160.597 76.861 161.486 76.5457 162.203 75.915C162.919 75.2843 163.278 74.2667 163.278 72.862C163.278 72.002 163.192 70.798 163.02 69.25C162.733 65.982 162.547 63.789 162.461 62.671C161.773 64.9357 160.612 67.6447 158.978 70.798C159.637 71.142 159.967 71.6437 159.967 72.303C159.967 72.8477 159.78 73.335 159.408 73.765C159.064 74.195 158.619 74.41 158.075 74.41C157.473 74.41 157.086 74.2237 156.914 73.851C156.914 74.883 157.114 75.6427 157.516 76.13C157.946 76.6173 158.619 76.861 159.537 76.861Z" fill="#5B736E"/>
<path d="M242 15C236.235 15.3963 195.737 19.2527 192.905 47.0191C192.561 49.9871 192.367 52.9685 192.239 55.952L212.152 36.0588C212.848 35.363 213.978 35.363 214.673 36.0588C215.369 36.7546 215.369 37.8824 214.673 38.5782L185.784 67.4389C184.74 68.482 184.74 70.1742 185.784 71.2174C186.828 72.2605 188.521 72.2605 189.567 71.2174L195.927 64.8639C200.613 64.8483 205.295 64.5822 209.95 64.0445C215.904 63.4389 220.751 61.0976 224.71 57.75H213.471L229.813 52.3083C231.065 50.6506 232.192 48.8894 233.203 47.0625H224.17L236.031 41.1387C240.696 29.7911 241.799 17.9235 242 15Z" fill="#5B736E"/>
</svg>
